<svg width="319" height="64" viewBox="0 0 319 64" fill="none" xmlns="http://www.w3.org/2000/svg">
<path d="M48 0H54C59.5228 0 64 4.47715 64 10V16H48V0Z" fill="#BF0A0B"/>
<rect x="32" width="16" height="16" fill="#C61819"/>
<rect x="16" width="16" height="16" fill="#D53434"/>
<path d="M0 10C0 4.47715 4.47715 0 10 0H16V16H0V10Z" fill="#E45151"/>
<rect x="48" y="16" width="16" height="16" fill="#C7191A"/>
<rect x="32" y="16" width="16" height="16" fill="#DE4545"/>
<rect x="16" y="16" width="16" height="16" fill="#E95B5B"/>
<rect y="16" width="16" height="16" fill="#EC6261"/>
<rect x="48" y="32" width="16" height="16" fill="#D63636"/>
<rect x="32" y="32" width="16" height="16" fill="#E45252"/>
<path d="M48 48H64V54C64 59.5228 59.5228 64 54 64H48V48Z" fill="#D63737"/>
<rect x="32" y="48" width="16" height="16" fill="#F36F6E"/>
<path d="M32 32H0L32 64V32Z" fill="#F4D265"/>
<path d="M89.12 21.6C93.2533 21.6 96.4133 22.7467 98.6 25.04C100.813 27.3333 101.92 30.5867 101.92 34.8C101.92 39.0133 100.813 42.2667 98.6 44.56C96.4133 46.8533 93.2533 48 89.12 48H77.92V21.6H89.12ZM88.44 42.8C90.68 42.8 92.3067 42.1333 93.32 40.8C94.36 39.44 94.88 37.44 94.88 34.8C94.88 32.16 94.36 30.1733 93.32 28.84C92.3067 27.48 90.68 26.8 88.44 26.8H84.8V42.8H88.44ZM114.677 35.32C114.677 34.3867 114.41 33.6533 113.877 33.12C113.37 32.56 112.677 32.28 111.797 32.28C110.917 32.28 110.157 32.5067 109.517 32.96C108.903 33.3867 108.477 34.16 108.237 35.28L102.477 33.92C102.85 32 103.837 30.4667 105.437 29.32C107.037 28.1733 109.29 27.6 112.197 27.6C114.143 27.6 115.797 27.8933 117.157 28.48C118.543 29.04 119.597 29.8933 120.317 31.04C121.063 32.16 121.437 33.5467 121.437 35.2V42.52C121.437 43.56 121.903 44.08 122.837 44.08C123.317 44.08 123.703 44.0267 123.997 43.92L123.597 47.8C122.797 48.1733 121.823 48.36 120.677 48.36C119.637 48.36 118.717 48.2 117.917 47.88C117.117 47.5333 116.49 47.0267 116.037 46.36C115.583 45.6667 115.357 44.8 115.357 43.76V43.52L116.117 43.24C116.117 44.3867 115.77 45.3467 115.077 46.12C114.41 46.8933 113.53 47.4667 112.437 47.84C111.37 48.2133 110.25 48.4 109.077 48.4C107.717 48.4 106.53 48.1867 105.517 47.76C104.503 47.3333 103.717 46.72 103.157 45.92C102.623 45.0933 102.357 44.08 102.357 42.88C102.357 41.44 102.783 40.2533 103.637 39.32C104.517 38.36 105.89 37.6933 107.757 37.32L115.317 35.76L115.277 39.36L111.437 40.16C110.637 40.32 110.037 40.56 109.637 40.88C109.263 41.1733 109.077 41.6267 109.077 42.24C109.077 42.8267 109.29 43.2667 109.717 43.56C110.143 43.8533 110.65 44 111.237 44C111.69 44 112.117 43.9333 112.517 43.8C112.943 43.6667 113.317 43.4667 113.637 43.2C113.957 42.9067 114.21 42.5467 114.397 42.12C114.583 41.6933 114.677 41.1867 114.677 40.6V35.32ZM127.681 25.68C126.294 25.68 125.281 25.4267 124.641 24.92C124.027 24.3867 123.721 23.56 123.721 22.44C123.721 21.2933 124.027 20.4667 124.641 19.96C125.281 19.4267 126.294 19.16 127.681 19.16C129.041 19.16 130.041 19.4267 130.681 19.96C131.321 20.4667 131.641 21.2933 131.641 22.44C131.641 23.56 131.321 24.3867 130.681 24.92C130.041 25.4267 129.041 25.68 127.681 25.68ZM131.081 28V48H124.281V28H131.081ZM140.241 19.52V41.2C140.241 42.08 140.388 42.7067 140.681 43.08C140.975 43.4533 141.468 43.64 142.161 43.64C142.561 43.64 142.895 43.6133 143.161 43.56C143.428 43.5067 143.748 43.4267 144.121 43.32L143.681 47.4C143.201 47.6933 142.575 47.9333 141.801 48.12C141.028 48.3067 140.268 48.4 139.521 48.4C137.388 48.4 135.841 47.9067 134.881 46.92C133.921 45.9333 133.441 44.32 133.441 42.08V19.52H140.241ZM163.663 28L156.383 48C155.636 50.1067 154.823 51.7867 153.943 53.04C153.063 54.2933 152.023 55.2 150.823 55.76C149.623 56.32 148.183 56.6 146.503 56.6C145.383 56.6 144.356 56.48 143.423 56.24C142.49 56 141.676 55.6667 140.983 55.24L142.343 50.64C142.823 50.9867 143.33 51.2267 143.863 51.36C144.396 51.52 145.076 51.6 145.903 51.6C146.676 51.6 147.303 51.4667 147.783 51.2C148.29 50.9333 148.69 50.4267 148.983 49.68L149.503 48.44L147.183 43L141.183 28H148.663L151.743 39.4L152.703 43.64L153.823 39.24L156.903 28H163.663ZM186.842 41.24C186.282 42.7333 185.482 44.0267 184.442 45.12C183.402 46.1867 182.176 47 180.762 47.56C179.376 48.12 177.856 48.4 176.202 48.4C173.696 48.4 171.522 47.8533 169.682 46.76C167.869 45.64 166.456 44.0667 165.442 42.04C164.456 40.0133 163.962 37.6 163.962 34.8C163.962 32 164.456 29.5867 165.442 27.56C166.456 25.5333 167.869 23.9733 169.682 22.88C171.522 21.76 173.669 21.2 176.122 21.2C177.829 21.2 179.349 21.44 180.682 21.92C182.016 22.3733 183.149 23.0667 184.082 24C185.042 24.9067 185.802 26.0267 186.362 27.36L183.202 28.84C182.616 27.32 181.762 26.1733 180.642 25.4C179.549 24.6 178.122 24.2 176.362 24.2C174.576 24.2 173.002 24.6267 171.642 25.48C170.282 26.3067 169.216 27.5067 168.442 29.08C167.696 30.6533 167.322 32.56 167.322 34.8C167.322 37.0133 167.682 38.92 168.402 40.52C169.122 42.0933 170.149 43.3067 171.482 44.16C172.816 44.9867 174.389 45.4 176.202 45.4C177.962 45.4 179.496 44.96 180.802 44.08C182.109 43.1733 183.056 41.8267 183.642 40.04L186.842 41.24ZM201.664 35.08C201.664 33.5867 201.264 32.44 200.464 31.64C199.664 30.8133 198.531 30.4 197.064 30.4C195.677 30.4 194.504 30.7067 193.544 31.32C192.584 31.9067 191.877 32.8667 191.424 34.2L188.824 32.6C189.357 31.1067 190.344 29.9067 191.784 29C193.224 28.0667 195.011 27.6 197.144 27.6C198.584 27.6 199.891 27.8533 201.064 28.36C202.237 28.84 203.157 29.5867 203.824 30.6C204.517 31.5867 204.864 32.8667 204.864 34.44V44.12C204.864 45.08 205.371 45.56 206.384 45.56C206.891 45.56 207.384 45.4933 207.864 45.36L207.704 47.88C207.171 48.1467 206.477 48.28 205.624 48.28C204.851 48.28 204.157 48.1333 203.544 47.84C202.931 47.5467 202.451 47.1067 202.104 46.52C201.757 45.9067 201.584 45.1467 201.584 44.24V43.84L202.384 43.96C202.064 45 201.517 45.8533 200.744 46.52C199.971 47.16 199.104 47.64 198.144 47.96C197.184 48.2533 196.237 48.4 195.304 48.4C194.131 48.4 193.037 48.2 192.024 47.8C191.011 47.4 190.197 46.8 189.584 46C188.997 45.1733 188.704 44.16 188.704 42.96C188.704 41.4667 189.197 40.24 190.184 39.28C191.197 38.2933 192.597 37.6267 194.384 37.28L202.304 35.72V38.36L195.864 39.68C194.557 39.9467 193.584 40.32 192.944 40.8C192.304 41.28 191.984 41.9467 191.984 42.8C191.984 43.6267 192.304 44.3067 192.944 44.84C193.611 45.3467 194.544 45.6 195.744 45.6C196.517 45.6 197.251 45.5067 197.944 45.32C198.664 45.1067 199.304 44.8 199.864 44.4C200.424 43.9733 200.864 43.4533 201.184 42.84C201.504 42.2 201.664 41.4533 201.664 40.6V35.08ZM213.28 18.8V42.92C213.28 43.9333 213.467 44.64 213.84 45.04C214.214 45.4133 214.814 45.6 215.64 45.6C216.174 45.6 216.614 45.56 216.96 45.48C217.307 45.4 217.774 45.2533 218.36 45.04L217.84 47.84C217.414 48.0267 216.947 48.16 216.44 48.24C215.934 48.3467 215.414 48.4 214.88 48.4C213.254 48.4 212.04 47.96 211.24 47.08C210.467 46.2 210.08 44.8533 210.08 43.04V18.8H213.28ZM228.427 48.4C226.534 48.4 224.84 47.9867 223.347 47.16C221.88 46.3333 220.734 45.1467 219.907 43.6C219.08 42.0267 218.667 40.16 218.667 38C218.667 35.84 219.08 33.9867 219.907 32.44C220.734 30.8667 221.867 29.6667 223.307 28.84C224.747 28.0133 226.387 27.6 228.227 27.6C230.094 27.6 231.68 28 232.987 28.8C234.32 29.6 235.334 30.6933 236.027 32.08C236.72 33.44 237.067 34.9733 237.067 36.68C237.067 37.1333 237.054 37.5467 237.027 37.92C237 38.2933 236.96 38.6267 236.907 38.92H220.747V36.08H235.507L233.867 36.4C233.867 34.48 233.334 33 232.267 31.96C231.227 30.92 229.854 30.4 228.147 30.4C226.84 30.4 225.707 30.7067 224.747 31.32C223.814 31.9067 223.08 32.7733 222.547 33.92C222.04 35.04 221.787 36.4 221.787 38C221.787 39.5733 222.054 40.9333 222.587 42.08C223.12 43.2267 223.867 44.1067 224.827 44.72C225.814 45.3067 226.987 45.6 228.347 45.6C229.814 45.6 231 45.32 231.907 44.76C232.84 44.2 233.587 43.44 234.147 42.48L236.667 43.96C236.16 44.8667 235.507 45.6533 234.707 46.32C233.934 46.9867 233.014 47.5067 231.947 47.88C230.907 48.2267 229.734 48.4 228.427 48.4ZM240.753 48V28H243.553L243.833 32.48L243.313 32.04C243.739 30.9733 244.313 30.12 245.033 29.48C245.753 28.8133 246.579 28.3333 247.513 28.04C248.473 27.7467 249.459 27.6 250.473 27.6C251.913 27.6 253.219 27.88 254.393 28.44C255.566 28.9733 256.499 29.8 257.193 30.92C257.913 32.04 258.273 33.4667 258.273 35.2V48H255.073V36.32C255.073 34.1067 254.593 32.5733 253.633 31.72C252.699 30.84 251.539 30.4 250.153 30.4C249.193 30.4 248.233 30.6267 247.273 31.08C246.313 31.5333 245.513 32.2667 244.873 33.28C244.259 34.2933 243.953 35.6533 243.953 37.36V48H240.753ZM270.918 48.4C269.265 48.4 267.745 47.9867 266.358 47.16C264.972 46.3333 263.865 45.1467 263.038 43.6C262.212 42.0267 261.798 40.16 261.798 38C261.798 35.7867 262.238 33.9067 263.118 32.36C263.998 30.8133 265.158 29.64 266.598 28.84C268.038 28.0133 269.585 27.6 271.238 27.6C272.892 27.6 274.318 28.0267 275.518 28.88C276.745 29.7333 277.558 30.8667 277.958 32.28L277.558 32.56V18.8H280.758V48H277.958L277.678 43.16L278.118 42.92C277.932 44.0933 277.478 45.0933 276.758 45.92C276.065 46.72 275.198 47.3333 274.158 47.76C273.145 48.1867 272.065 48.4 270.918 48.4ZM271.238 45.6C272.518 45.6 273.625 45.28 274.558 44.64C275.518 44 276.252 43.0933 276.758 41.92C277.292 40.72 277.558 39.32 277.558 37.72C277.558 36.2 277.292 34.8933 276.758 33.8C276.252 32.7067 275.532 31.8667 274.598 31.28C273.692 30.6933 272.625 30.4 271.398 30.4C269.372 30.4 267.798 31.0933 266.678 32.48C265.558 33.8667 264.998 35.7067 264.998 38C264.998 40.2933 265.545 42.1333 266.638 43.52C267.732 44.9067 269.265 45.6 271.238 45.6ZM297.477 35.08C297.477 33.5867 297.077 32.44 296.277 31.64C295.477 30.8133 294.343 30.4 292.877 30.4C291.49 30.4 290.317 30.7067 289.357 31.32C288.397 31.9067 287.69 32.8667 287.237 34.2L284.637 32.6C285.17 31.1067 286.157 29.9067 287.597 29C289.037 28.0667 290.823 27.6 292.957 27.6C294.397 27.6 295.703 27.8533 296.877 28.36C298.05 28.84 298.97 29.5867 299.637 30.6C300.33 31.5867 300.677 32.8667 300.677 34.44V44.12C300.677 45.08 301.183 45.56 302.197 45.56C302.703 45.56 303.197 45.4933 303.677 45.36L303.517 47.88C302.983 48.1467 302.29 48.28 301.437 48.28C300.663 48.28 299.97 48.1333 299.357 47.84C298.743 47.5467 298.263 47.1067 297.917 46.52C297.57 45.9067 297.397 45.1467 297.397 44.24V43.84L298.197 43.96C297.877 45 297.33 45.8533 296.557 46.52C295.783 47.16 294.917 47.64 293.957 47.96C292.997 48.2533 292.05 48.4 291.117 48.4C289.943 48.4 288.85 48.2 287.837 47.8C286.823 47.4 286.01 46.8 285.397 46C284.81 45.1733 284.517 44.16 284.517 42.96C284.517 41.4667 285.01 40.24 285.997 39.28C287.01 38.2933 288.41 37.6267 290.197 37.28L298.117 35.72V38.36L291.677 39.68C290.37 39.9467 289.397 40.32 288.757 40.8C288.117 41.28 287.797 41.9467 287.797 42.8C287.797 43.6267 288.117 44.3067 288.757 44.84C289.423 45.3467 290.357 45.6 291.557 45.6C292.33 45.6 293.063 45.5067 293.757 45.32C294.477 45.1067 295.117 44.8 295.677 44.4C296.237 43.9733 296.677 43.4533 296.997 42.84C297.317 42.2 297.477 41.4533 297.477 40.6V35.08ZM306.053 48V28H308.653L309.093 31.28C309.653 30.0533 310.466 29.1333 311.533 28.52C312.626 27.9067 313.946 27.6 315.493 27.6C315.839 27.6 316.213 27.6267 316.613 27.68C317.039 27.7333 317.399 27.84 317.693 28L317.133 30.92C316.839 30.8133 316.519 30.7333 316.173 30.68C315.826 30.6267 315.333 30.6 314.693 30.6C313.866 30.6 313.026 30.84 312.173 31.32C311.346 31.8 310.653 32.5333 310.093 33.52C309.533 34.48 309.253 35.7067 309.253 37.2V48H306.053Z" fill="#505050"/>
</svg>
